<svg width="23" height="23" viewBox="0 0 23 23" fill="none" xmlns="http://www.w3.org/2000/svg">
<path d="M2.32228 23C1.66055 23 1.10807 22.7784 0.664844 22.3352C0.221615 21.8919 0 21.3394 0 20.6777V15.8125H1.4375V20.6777C1.4375 20.8991 1.52962 21.1019 1.71386 21.2861C1.8981 21.4704 2.10091 21.5625 2.32228 21.5625H7.1875V23H2.32228ZM20.6777 23H15.8125V21.5625H20.6777C20.8991 21.5625 21.1019 21.4704 21.2861 21.2861C21.4704 21.1019 21.5625 20.8991 21.5625 20.6777V15.8125H23V20.6777C23 21.3394 22.7784 21.8919 22.3352 22.3352C21.8919 22.7784 21.3394 23 20.6777 23ZM0 2.32228C0 1.66055 0.221615 1.10807 0.664844 0.664844C1.10807 0.221615 1.66055 0 2.32228 0H7.1875V1.4375H2.32228C2.10091 1.4375 1.8981 1.52962 1.71386 1.71386C1.52962 1.8981 1.4375 2.10091 1.4375 2.32228V7.1875H0V2.32228ZM23 2.32228V7.1875H21.5625V2.32228C21.5625 2.10091 21.4704 1.8981 21.2861 1.71386C21.1019 1.52962 20.8991 1.4375 20.6777 1.4375H15.8125V0H20.6777C21.3394 0 21.8919 0.221615 22.3352 0.664844C22.7784 1.10807 23 1.66055 23 2.32228Z" fill="#1C1B1F"/>
</svg>
